<svg xmlns="http://www.w3.org/2000/svg" viewBox="0 0 167.49 160.99"><defs><style>.cls-1{fill:none;stroke:#d0d2d6;stroke-linecap:round;stroke-linejoin:round;stroke-width:2px;}.cls-2{fill:#d0d2d6;opacity:0.3;}</style></defs><title>branding-icon</title><g id="Слой_2" data-name="Слой 2"><g id="Layer_1" data-name="Layer 1"><polyline class="cls-1" points="84.63 38.81 87.94 24.13 166.49 43.03 142.66 148.61 124.97 144.34"/><path class="cls-1" d="M94.48,102C113.63,117.28,125,144.34,125,144.34l-24.84-6"/><path class="cls-2" d="M125,144.34A135.42,135.42,0,0,0,115.72,127s11.73-9.08,33.35-6.76l-6.42,28.4Z"/><path class="cls-1" d="M125,144.34A135.42,135.42,0,0,0,115.72,127s11.73-9.08,33.35-6.76l-6.42,28.4Z"/><path class="cls-2" d="M146.81,65.48A10.63,10.63,0,0,1,134,73.69a11,11,0,0,1-8-13.19,10.63,10.63,0,0,1,12.77-8.21A11,11,0,0,1,146.81,65.48Z"/><path class="cls-1" d="M146.81,65.48A10.63,10.63,0,0,1,134,73.69a11,11,0,0,1-8-13.19,10.63,10.63,0,0,1,12.77-8.21A11,11,0,0,1,146.81,65.48Z"/><polygon class="cls-1" points="101.29 146.16 17.78 159.99 1 51.96 84.51 38.13 101.29 146.16"/><line class="cls-1" x1="19.72" y1="1" x2="19.72" y2="14.33"/><line class="cls-1" x1="27.18" y1="7.66" x2="12.26" y2="7.66"/><line class="cls-1" x1="53.59" y1="14.58" x2="53.59" y2="23.51"/><line class="cls-1" x1="58.06" y1="19.05" x2="49.13" y2="19.05"/><path class="cls-1" d="M48.52,78.18a18,18,0,0,0-2.26,9.5l1.84,53.92c0,1.81,1,3.28,2.13,3.28h.68c1.17,0,2.13-1.48,2.13-3.28l1.84-53.92a18,18,0,0,0-2.26-9.5Z"/><path class="cls-2" d="M45.38,71.24c0,3.83,2.32,6.94,5.19,6.94s6.31-3.27,5.19-6.94a25.73,25.73,0,0,1-.88-11.76S45.38,67.41,45.38,71.24Z"/><path class="cls-1" d="M45.38,71.24c0,3.83,2.32,6.94,5.19,6.94s6.31-3.27,5.19-6.94a25.73,25.73,0,0,1-.88-11.76S45.38,67.41,45.38,71.24Z"/><polygon class="cls-2" points="54.69 94.76 46.55 94.76 46.38 89.86 54.86 89.86 54.69 94.76"/><polygon class="cls-1" points="54.64 94.71 46.5 94.71 46.33 89.81 54.81 89.81 54.64 94.71"/></g></g></svg>