<svg xmlns="http://www.w3.org/2000/svg" viewBox="0 0 232.21 180.68"><defs><style>.cls-1{fill:#4ca9ff;opacity:0.3;}.cls-2,.cls-3{fill:none;stroke:#4ca9ff;stroke-linecap:round;stroke-linejoin:round;}.cls-2{stroke-width:2px;}</style></defs><title>design</title><g id="Слой_2" data-name="Слой 2"><g id="Layer_1" data-name="Layer 1"><rect class="cls-1" x="22.64" y="77.16" width="30.16" height="30.16"/><circle class="cls-1" cx="91.47" cy="132.26" r="6.05"/><circle class="cls-1" cx="191.94" cy="170.23" r="3.7"/><rect class="cls-1" x="163.26" y="80.31" width="51.95" height="43.03"/><circle class="cls-2" cx="91.47" cy="132.26" r="6.05"/><circle class="cls-3" cx="191.94" cy="170.23" r="3.7"/><rect class="cls-2" x="22.64" y="77.16" width="30.16" height="30.16"/><rect class="cls-2" x="163.19" y="80.31" width="52.4" height="43.03"/><rect class="cls-1" x="73.67" y="146.1" width="35.23" height="8.39"/><path class="cls-2" d="M148.78,146.32H21.2A20.26,20.26,0,0,1,1,126.11V27.44A20.26,20.26,0,0,1,21.2,7.23H161.74a20.26,20.26,0,0,1,20.2,20.2V65.24"/><path class="cls-2" d="M148.78,117.38H21.33a10.88,10.88,0,0,1-10.85-10.85V28A10.89,10.89,0,0,1,21.33,17.15H161.6A10.88,10.88,0,0,1,172.46,28V64.37"/><path class="cls-1" d="M10.48,31.45V28A10.89,10.89,0,0,1,21.33,17.15H161.6A10.88,10.88,0,0,1,172.46,28v3.44Z"/><path class="cls-2" d="M10.48,31.45V28A10.89,10.89,0,0,1,21.33,17.15H161.6A10.88,10.88,0,0,1,172.46,28v3.44Z"/><path class="cls-2" d="M109.16,146.34s-3.19,20.24,12.53,20.24H61.25c15.72,0,12.28-20.23,12.28-20.23"/><rect class="cls-2" x="22.64" y="42.2" width="60.32" height="22.54"/><line class="cls-2" x1="92.09" y1="45.51" x2="142.38" y2="45.51"/><line class="cls-2" x1="92.09" y1="54.82" x2="151.69" y2="54.82"/><line class="cls-2" x1="92.09" y1="62.27" x2="142.38" y2="62.27"/><rect class="cls-2" x="63.73" y="77.16" width="30.16" height="30.16"/><rect class="cls-2" x="104.83" y="77.16" width="30.16" height="30.16"/><rect class="cls-2" x="148.85" y="65.23" width="80.15" height="114.45" rx="4.82" ry="4.82"/><rect class="cls-2" x="154.45" y="71.76" width="68.95" height="89.51" rx="3.11" ry="3.11"/><line class="cls-2" x1="164.73" y1="134.92" x2="205.71" y2="134.92"/><line class="cls-2" x1="164.73" y1="142.37" x2="198.26" y2="142.37"/><line class="cls-2" x1="205.5" y1="38.14" x2="205.5" y2="48.6"/><line class="cls-2" x1="210.72" y1="43.37" x2="200.27" y2="43.37"/><line class="cls-2" x1="222.48" y1="1" x2="222.48" y2="18.46"/><line class="cls-2" x1="231.21" y1="9.73" x2="213.75" y2="9.73"/></g></g></svg>