<svg xmlns="http://www.w3.org/2000/svg" viewBox="0 0 232.43 137.31"><defs><style>.cls-1{fill:#d0d2d6;opacity:0.3;}.cls-2,.cls-3{fill:none;stroke-linecap:round;stroke-linejoin:round;}.cls-2{stroke:#266cd3;}.cls-3{stroke:#d0d2d6;stroke-width:2px;}</style></defs><title>technology-icon</title><g id="Слой_2" data-name="Слой 2"><g id="Layer_1" data-name="Layer 1"><path class="cls-1" d="M226,35.23l5.38-1.46L228,21.09l-6.19,1.68a28.74,28.74,0,0,0-6-7.65l3.14-5.89L207.36,2.48,204.18,8a33,33,0,0,0-11-1.51L191.67,1,179.83,4.21l1.49,5.5a24,24,0,0,0-9.36,7l-5.88-3.14-6.74,11.57L165,28.9a28.81,28.81,0,0,0-1.38,9.66L157,40.37l3.44,12.68,5.87-1.59a29.28,29.28,0,0,0,7.53,10.08l-3.28,5.36L182,73.38l3.74-5.82a24,24,0,0,0,11.58,1.21l1.75,6.44L211,72l-1.75-6.44a32.86,32.86,0,0,0,8.76-6.8L223.54,62l6.59-11.53-5.48-2.72A29.27,29.27,0,0,0,226,35.23ZM199.56,56.81a19.72,19.72,0,1,1,13.86-24.2A19.72,19.72,0,0,1,199.56,56.81Z"/><path class="cls-2" d="M200.2,21.4"/><path class="cls-3" d="M44.42,126a11,11,0,0,1-2.59-7.06V32.42a11,11,0,0,1,11-11H161.51"/><path class="cls-2" d="M52.85,129.94"/><path class="cls-3" d="M211.22,64.39v54.53a10.87,10.87,0,0,1-2.55,7.06"/><path class="cls-2" d="M211.22,32.42"/><path class="cls-2" d="M193.73,27.07"/><path class="cls-3" d="M204.75,73.68v34.62a11,11,0,0,1-11,11H59.31a11,11,0,0,1-11-11V38.1a11,11,0,0,1,11-11h103"/><path class="cls-2" d="M204.75,38.1"/><rect class="cls-3" x="24.17" y="125.97" width="204.7" height="10.34" rx="3" ry="3"/><rect class="cls-1" x="92.26" y="125.97" width="68.52" height="5.17" rx="1.5" ry="1.5"/><rect class="cls-3" x="92.26" y="125.97" width="68.52" height="5.17" rx="1.5" ry="1.5"/><line class="cls-3" x1="64.83" y1="45.35" x2="123.48" y2="45.35"/><line class="cls-3" x1="64.83" y1="59.15" x2="132.1" y2="59.15"/><line class="cls-3" x1="9.09" y1="17.43" x2="9.09" y2="33.6"/><line class="cls-3" x1="17.17" y1="25.52" x2="1" y2="25.52"/><line class="cls-3" x1="22.35" y1="53.45" x2="22.35" y2="63.13"/><line class="cls-3" x1="27.19" y1="58.29" x2="17.51" y2="58.29"/><path class="cls-3" d="M226,35.23l5.38-1.46L228,21.09l-6.19,1.68a28.74,28.74,0,0,0-6-7.65l3.14-5.89L207.36,2.48,204.18,8a33,33,0,0,0-11-1.51L191.67,1,179.83,4.21l1.49,5.5a24,24,0,0,0-9.36,7l-5.88-3.14-6.74,11.57L165,28.9a28.81,28.81,0,0,0-1.38,9.66L157,40.37l3.44,12.68,5.87-1.59a29.28,29.28,0,0,0,7.53,10.08l-3.28,5.36L182,73.38l3.74-5.82a24,24,0,0,0,11.58,1.21l1.75,6.44L211,72l-1.75-6.44a32.86,32.86,0,0,0,8.76-6.8L223.54,62l6.59-11.53-5.48-2.72A29.27,29.27,0,0,0,226,35.23ZM199.56,56.81a19.72,19.72,0,1,1,13.86-24.2A19.72,19.72,0,0,1,199.56,56.81Z"/><line class="cls-3" x1="64.83" y1="74.68" x2="154.53" y2="74.68"/><rect class="cls-1" x="64.32" y="89.34" width="124.41" height="16.68" rx="2.42" ry="2.42"/></g></g></svg>